<svg width="201" height="80" viewBox="0 0 201 80" fill="none" xmlns="http://www.w3.org/2000/svg">
<g filter="url(#filter0_d_307_19500)">
<rect x="10.5" y="5" width="180" height="60" rx="7" fill="white"/>
<path d="M132.789 33.8014V37.2379H130.635V39.4916H132.789V47.1491C132.789 49.7638 133.972 50.8097 136.948 50.8097C137.47 50.8097 137.969 50.7475 138.404 50.6727V48.444C138.031 48.4813 137.794 48.5062 137.383 48.5062C136.051 48.5062 135.466 47.8837 135.466 46.4643V39.4916H138.404V37.2379H135.466V33.8014H132.789Z" fill="#212121"/>
<path d="M145.985 50.9965C149.945 50.9965 152.373 48.3444 152.373 43.9491C152.373 39.5788 149.932 36.9142 145.985 36.9142C142.026 36.9142 139.585 39.5788 139.585 43.9491C139.585 48.3444 142.013 50.9965 145.985 50.9965ZM145.985 48.6183C143.657 48.6183 142.349 46.9125 142.349 43.9491C142.349 41.0106 143.657 39.2924 145.985 39.2924C148.301 39.2924 149.621 41.0106 149.621 43.9491C149.621 46.9 148.301 48.6183 145.985 48.6183Z" fill="#212121"/>
<path d="M154.45 50.735H157.127V42.7289C157.127 40.8239 158.559 39.5414 160.588 39.5414C161.061 39.5414 161.858 39.6286 162.082 39.7033V37.0636C161.796 36.9889 161.286 36.9516 160.887 36.9516C159.119 36.9516 157.612 37.9227 157.226 39.255H157.027V37.1757H154.45V50.735Z" fill="#212121"/>
<path d="M168.729 39.1928C170.709 39.1928 172.004 40.5748 172.066 42.704H165.218C165.368 40.5873 166.75 39.1928 168.729 39.1928ZM172.054 47.0744C171.556 48.1327 170.448 48.7179 168.829 48.7179C166.687 48.7179 165.305 47.2113 165.218 44.8331V44.6837H174.793V43.7499C174.793 39.4916 172.515 36.9142 168.742 36.9142C164.919 36.9142 162.491 39.6659 162.491 43.9989C162.491 48.3319 164.87 50.9965 168.754 50.9965C171.855 50.9965 174.021 49.5023 174.631 47.0744H172.054Z" fill="#212121"/>
<path d="M115.233 45.7278C115.44 49.0573 118.215 51.1867 122.344 51.1867C126.758 51.1867 129.52 48.9541 129.52 45.3922C129.52 42.5918 127.945 41.0431 124.125 40.1527L122.073 39.6494C119.647 39.0815 118.666 38.3201 118.666 36.9909C118.666 35.3132 120.189 34.2163 122.473 34.2163C124.641 34.2163 126.138 35.2874 126.409 37.0038H129.223C129.055 33.8678 126.293 31.661 122.512 31.661C118.447 31.661 115.737 33.8678 115.737 37.1845C115.737 39.9204 117.272 41.5464 120.641 42.3337L123.041 42.9144C125.506 43.4951 126.59 44.3469 126.59 45.7665C126.59 47.4183 124.887 48.6185 122.564 48.6185C120.073 48.6185 118.344 47.4958 118.098 45.7278H115.233Z" fill="#212121"/>
<path d="M87.5025 36.9516C85.6597 36.9516 84.0659 37.8729 83.2442 39.4169H83.0449V37.1757H80.4675V55.2423H83.1445V48.6806H83.3562C84.0659 50.1124 85.5974 50.9591 87.5274 50.9591C90.9514 50.9591 93.1304 48.2572 93.1304 43.9491C93.1304 39.641 90.9514 36.9516 87.5025 36.9516ZM86.7429 48.556C84.5017 48.556 83.0947 46.788 83.0947 43.9616C83.0947 41.1227 84.5017 39.3546 86.7554 39.3546C89.0215 39.3546 90.3787 41.0853 90.3787 43.9491C90.3787 46.8253 89.0215 48.556 86.7429 48.556Z" fill="#212121"/>
<path d="M102.498 36.9516C100.655 36.9516 99.0611 37.8729 98.2393 39.4169H98.0401V37.1757H95.4627V55.2423H98.1397V48.6806H98.3514C99.0611 50.1124 100.593 50.9591 102.523 50.9591C105.947 50.9591 108.126 48.2572 108.126 43.9491C108.126 39.641 105.947 36.9516 102.498 36.9516ZM101.738 48.556C99.4969 48.556 98.0899 46.788 98.0899 43.9616C98.0899 41.1227 99.4969 39.3546 101.751 39.3546C104.017 39.3546 105.374 41.0853 105.374 43.9491C105.374 46.8253 104.017 48.556 101.738 48.556Z" fill="#212121"/>
<path d="M75.6645 50.735H78.736L72.0123 32.1127H68.9022L62.1785 50.735H65.1467L66.8631 45.7923H73.961L75.6645 50.735ZM70.3088 35.4939H70.5282L73.2254 43.3661H67.5987L70.3088 35.4939Z" fill="#212121"/>
<path d="M63.9767 18.0664V27.0499H67.2202C69.8972 27.0499 71.4474 25.4001 71.4474 22.5302C71.4474 19.7037 69.8848 18.0664 67.2202 18.0664H63.9767ZM65.3712 19.3364H67.0646C68.926 19.3364 70.028 20.5193 70.028 22.5488C70.028 24.6095 68.9447 25.7799 67.0646 25.7799H65.3712V19.3364Z" fill="#616161"/>
<path d="M76.195 27.1807C78.1748 27.1807 79.3887 25.8546 79.3887 23.657C79.3887 21.4718 78.1685 20.1395 76.195 20.1395C74.2153 20.1395 72.9951 21.4718 72.9951 23.657C72.9951 25.8546 74.2091 27.1807 76.195 27.1807ZM76.195 25.9916C75.0308 25.9916 74.3771 25.1387 74.3771 23.657C74.3771 22.1877 75.0308 21.3286 76.195 21.3286C77.353 21.3286 78.0129 22.1877 78.0129 23.657C78.0129 25.1324 77.353 25.9916 76.195 25.9916Z" fill="#616161"/>
<path d="M89.727 20.2703H88.3885L87.1807 25.4437H87.0749L85.6803 20.2703H84.3979L83.0033 25.4437H82.9037L81.6897 20.2703H80.3325L82.2002 27.0499H83.5761L84.9706 22.057H85.0764L86.4772 27.0499H87.8655L89.727 20.2703Z" fill="#616161"/>
<path d="M91.2684 27.0499H92.6069V23.0842C92.6069 22.0259 93.2357 21.366 94.2256 21.366C95.2154 21.366 95.6886 21.9076 95.6886 22.9971V27.0499H97.0271V22.6609C97.0271 21.0485 96.1928 20.1395 94.68 20.1395C93.659 20.1395 92.9867 20.594 92.6567 21.3473H92.5571V20.2703H91.2684V27.0499Z" fill="#616161"/>
<path d="M99.1351 27.0499H100.474V17.6244H99.1351V27.0499Z" fill="#616161"/>
<path d="M105.508 27.1807C107.487 27.1807 108.701 25.8546 108.701 23.657C108.701 21.4718 107.481 20.1395 105.508 20.1395C103.528 20.1395 102.308 21.4718 102.308 23.657C102.308 25.8546 103.522 27.1807 105.508 27.1807ZM105.508 25.9916C104.343 25.9916 103.69 25.1387 103.69 23.657C103.69 22.1877 104.343 21.3286 105.508 21.3286C106.666 21.3286 107.325 22.1877 107.325 23.657C107.325 25.1324 106.666 25.9916 105.508 25.9916Z" fill="#616161"/>
<path d="M112.689 26.0352C111.961 26.0352 111.432 25.6803 111.432 25.0702C111.432 24.4725 111.855 24.155 112.789 24.0928L114.445 23.9869V24.5535C114.445 25.3939 113.698 26.0352 112.689 26.0352ZM112.347 27.162C113.237 27.162 113.978 26.776 114.383 26.0974H114.489V27.0499H115.777V22.4181C115.777 20.9862 114.819 20.1395 113.119 20.1395C111.581 20.1395 110.486 20.8866 110.349 22.0508H111.644C111.793 21.5714 112.31 21.2975 113.057 21.2975C113.972 21.2975 114.445 21.7021 114.445 22.4181V23.0033L112.608 23.1091C110.996 23.2087 110.087 23.9122 110.087 25.1324C110.087 26.3713 111.04 27.162 112.347 27.162Z" fill="#616161"/>
<path d="M120.319 27.162C121.253 27.162 122.044 26.72 122.449 25.9791H122.554V27.0499H123.837V17.6244H122.498V21.3473H122.399C122.032 20.6002 121.247 20.1582 120.319 20.1582C118.607 20.1582 117.506 21.5154 117.506 23.657C117.506 25.8048 118.595 27.162 120.319 27.162ZM120.699 21.3597C121.82 21.3597 122.523 22.25 122.523 23.6632C122.523 25.0826 121.826 25.9604 120.699 25.9604C119.566 25.9604 118.888 25.0951 118.888 23.657C118.888 22.2313 119.572 21.3597 120.699 21.3597Z" fill="#616161"/>
<path d="M132.517 27.1807C134.496 27.1807 135.71 25.8546 135.71 23.657C135.71 21.4718 134.49 20.1395 132.517 20.1395C130.537 20.1395 129.317 21.4718 129.317 23.657C129.317 25.8546 130.531 27.1807 132.517 27.1807ZM132.517 25.9916C131.352 25.9916 130.699 25.1387 130.699 23.657C130.699 22.1877 131.352 21.3286 132.517 21.3286C133.675 21.3286 134.335 22.1877 134.335 23.657C134.335 25.1324 133.675 25.9916 132.517 25.9916Z" fill="#616161"/>
<path d="M137.482 27.0499H138.821V23.0842C138.821 22.0259 139.449 21.366 140.439 21.366C141.429 21.366 141.902 21.9076 141.902 22.9971V27.0499H143.241V22.6609C143.241 21.0485 142.407 20.1395 140.894 20.1395C139.873 20.1395 139.2 20.594 138.87 21.3473H138.771V20.2703H137.482V27.0499Z" fill="#616161"/>
<path d="M149.405 18.5831V20.3014H148.328V21.4282H149.405V25.257C149.405 26.5643 149.997 27.0873 151.485 27.0873C151.746 27.0873 151.995 27.0562 152.213 27.0188V25.9044C152.026 25.9231 151.908 25.9355 151.703 25.9355C151.037 25.9355 150.744 25.6243 150.744 24.9146V21.4282H152.213V20.3014H150.744V18.5831H149.405Z" fill="#616161"/>
<path d="M154.01 27.0499H155.348V23.0905C155.348 22.0632 155.958 21.3722 157.054 21.3722C158 21.3722 158.505 21.92 158.505 23.0033V27.0499H159.843V22.6733C159.843 21.0609 158.953 20.1458 157.509 20.1458C156.488 20.1458 155.772 20.6002 155.442 21.3597H155.336V17.6244H154.01V27.0499Z" fill="#616161"/>
<path d="M164.672 21.2788C165.662 21.2788 166.309 21.9698 166.34 23.0344H162.916C162.991 21.9761 163.682 21.2788 164.672 21.2788ZM166.334 25.2196C166.085 25.7488 165.531 26.0414 164.722 26.0414C163.651 26.0414 162.96 25.2881 162.916 24.099V24.0243H167.704V23.5574C167.704 21.4282 166.564 20.1395 164.678 20.1395C162.767 20.1395 161.553 21.5154 161.553 23.6819C161.553 25.8484 162.742 27.1807 164.684 27.1807C166.234 27.1807 167.318 26.4336 167.623 25.2196H166.334Z" fill="#616161"/>
<path d="M47.6535 35.4512C47.686 32.9297 49.0401 30.5438 51.1883 29.2231C49.8331 27.2877 47.5632 26.0605 45.2016 25.9866C42.6827 25.7222 40.2408 27.4939 38.9572 27.4939C37.6488 27.4939 35.6726 26.0129 33.5445 26.0567C30.7706 26.1463 28.1847 27.7233 26.8351 30.1485C23.9341 35.1711 26.098 42.5527 28.8769 46.6126C30.2673 48.6006 31.8922 50.8213 34.0184 50.7425C36.0989 50.6562 36.876 49.4158 39.3875 49.4158C41.8756 49.4158 42.6046 50.7425 44.774 50.6925C47.0065 50.6562 48.4131 48.6956 49.7547 46.6887C50.7537 45.2722 51.5224 43.7066 52.0323 42.05C49.4087 40.9403 47.6566 38.2999 47.6535 35.4512Z" fill="#00746A"/>
<path d="M43.556 23.3166C44.7733 21.8553 45.373 19.977 45.2278 18.0807C43.368 18.276 41.6501 19.1649 40.4164 20.5701C39.21 21.9431 38.5821 23.7883 38.7008 25.6122C40.5613 25.6313 42.3902 24.7666 43.556 23.3166Z" fill="#00746A"/>
</g>
<defs>
<filter id="filter0_d_307_19500" x="0.5" y="0" width="200" height="80" filterUnits="userSpaceOnUse" color-interpolation-filters="sRGB">
<feFlood flood-opacity="0" result="BackgroundImageFix"/>
<feColorMatrix in="SourceAlpha" type="matrix" values="0 0 0 0 0 0 0 0 0 0 0 0 0 0 0 0 0 0 127 0" result="hardAlpha"/>
<feOffset dy="5"/>
<feGaussianBlur stdDeviation="5"/>
<feColorMatrix type="matrix" values="0 0 0 0 1 0 0 0 0 0.680498 0 0 0 0 0 0 0 0 0.26 0"/>
<feBlend mode="normal" in2="BackgroundImageFix" result="effect1_dropShadow_307_19500"/>
<feBlend mode="normal" in="SourceGraphic" in2="effect1_dropShadow_307_19500" result="shape"/>
</filter>
</defs>
</svg>
