<svg width="167" height="192" viewBox="0 0 167 192" fill="none" xmlns="http://www.w3.org/2000/svg">
<g clip-path="url(#clip0_460_152)" filter="url(#filter0_dd_460_152)">
<rect x="41" y="21" width="85" height="110" rx="16" fill="url(#paint0_linear_460_152)" stroke="url(#paint1_linear_460_152)" stroke-width="2"/>
<path d="M108.911 76.1077C108.911 74.1433 107.315 72.5538 105.342 72.5538H101.774V69C101.774 60.4196 95.6355 53.2415 87.4993 51.5904V47.6769C87.4993 45.7126 85.9032 44.123 83.9307 44.123C81.9582 44.123 80.3621 45.7126 80.3621 47.6769V51.5904C72.2259 53.2415 66.0877 60.4196 66.0877 69V72.5538H62.5191C60.5466 72.5538 58.9505 74.1433 58.9505 76.1077C58.9505 78.072 60.5466 79.6615 62.5191 79.6615H105.342C107.315 79.6615 108.911 78.072 108.911 76.1077ZM98.2051 93.8769H69.6563C67.6838 93.8769 66.0877 95.4664 66.0877 97.4307C66.0877 99.3951 67.6838 100.985 69.6563 100.985H98.2051C100.178 100.985 101.774 99.3951 101.774 97.4307C101.774 95.4664 100.178 93.8769 98.2051 93.8769Z" fill="white"/>
</g>
<defs>
<linearGradient id="paint0_linear_460_152" x1="1.78391" y1="-119.067" x2="170.052" y2="-112.577" gradientUnits="userSpaceOnUse">
<stop stop-color="currentColor"/>
<stop offset="1" stop-color="#4B9960"/>
</linearGradient>
<clipPath id="clip0_460_152">
<rect width="87" height="112" fill="currentColor" transform="translate(40 20)"/>
</clipPath>
</defs>
</svg>
