<svg width="136" height="136" viewBox="0 0 136 136" fill="none" xmlns="http://www.w3.org/2000/svg">
<g clip-path="url(#clip0_307_19452)">
<path d="M131.601 74.2656L79.7896 18.1482C76.885 15.002 72.5512 13.6119 68.3588 14.4665L62.2099 15.7278L39.5525 20.3666L39.1123 20.4552C38.889 20.5004 38.6704 20.5516 38.4541 20.6095C38.3407 20.6399 38.2251 20.6745 38.109 20.7094C35.6996 21.4177 33.5998 22.8416 32.0614 24.7523C31.0659 25.9837 30.3018 27.418 29.8399 28.9923L21.3869 57.8452C20.1822 61.9638 21.2206 66.416 24.1348 69.5709L75.926 125.667C78.5707 128.53 82.1298 130.039 85.735 130.166C88.6755 130.273 91.6493 129.458 94.1867 127.703C94.7272 127.33 95.249 126.914 95.7487 126.456L100.37 122.188L130.808 94.086C136.501 88.8307 136.855 79.9556 131.601 74.2656ZM52.4706 50.9224C52.3533 51.1158 52.2371 51.3018 52.1127 51.4822C52.0605 51.5625 52.0017 51.6445 51.9443 51.7188C51.7569 51.9678 51.5558 52.2056 51.3464 52.4276C51.2754 52.5055 51.2066 52.5792 51.1326 52.6468C51.0616 52.7247 50.985 52.7969 50.9103 52.861C48.3617 55.193 44.502 55.7229 41.3487 53.9025C37.4498 51.6487 36.117 46.6747 38.3685 42.7803C40.4169 39.2274 44.7335 37.8057 48.4374 39.2909C48.6848 39.3902 48.936 39.5033 49.1841 39.632C49.2843 39.6899 49.386 39.7399 49.4908 39.8004C53.3842 42.048 54.7169 47.022 52.4706 50.9224Z" fill="#E8E8E8"/>
<path d="M75.9261 125.667C78.5708 128.53 82.1299 130.039 85.7351 130.166C88.6756 130.273 91.6493 129.458 94.1867 127.703C94.7272 127.33 95.2491 126.914 95.7488 126.456L100.37 122.188L130.808 94.086C136.501 88.8309 136.855 79.9558 131.601 74.2657L107.397 48.0498L77.4054 30.7342C76.3055 29.9545 75.0713 29.348 73.738 28.9615L67.7058 27.2151L45.0614 20.6615C43.2039 20.1241 41.285 20.0482 39.4497 20.387L39.1434 20.4487C39.0489 20.4686 38.9548 20.4919 38.8606 20.5141C38.7414 20.5411 38.621 20.567 38.5038 20.5978C38.2929 20.6544 38.0844 20.7196 37.8762 20.7875C37.7918 20.8142 37.7084 20.8434 37.625 20.8718C35.8604 21.4901 34.2295 22.5115 32.882 23.9043L32.0575 24.7569C31.0639 25.9873 30.3011 27.4198 29.8396 28.9921L21.3867 57.845C20.182 61.9636 21.2204 66.4158 24.1345 69.5707L75.9261 125.667ZM38.3682 42.7801C40.4167 39.2272 44.7332 37.8055 48.4372 39.2907C48.6846 39.3899 48.9357 39.5031 49.1839 39.6318C49.2841 39.6897 49.3858 39.7397 49.4905 39.8002C53.3843 42.0482 54.717 47.0217 52.4707 50.9224C52.3534 51.1158 52.2372 51.3018 52.1128 51.4822C52.0606 51.5625 52.0018 51.6445 51.9444 51.7187C51.757 51.9678 51.5559 52.2056 51.3464 52.4276C51.2755 52.5054 51.2067 52.5792 51.1327 52.6468C51.0617 52.7247 50.9851 52.7969 50.9104 52.8609C48.3618 55.193 44.502 55.7228 41.3488 53.9025C37.4498 51.6487 36.1171 46.6747 38.3682 42.7801Z" fill="url(#paint0_linear_307_19452)"/>
<path d="M80.0479 34.519L74.6733 31.2709L54.4967 19.0801C50.6239 16.7413 45.7741 16.733 41.8933 19.0602L16.1099 34.527C12.4294 36.7335 10.1747 40.7105 10.1747 45.0038V121.354C10.1747 129.1 16.4544 135.379 24.2037 135.379H71.9219C79.6676 135.379 85.9469 129.1 85.9469 121.354V44.9756C85.9472 40.6943 83.7082 36.7335 80.0479 34.519ZM42.3058 50.2262C39.1257 47.0422 39.1257 41.892 42.3058 38.7122C45.2054 35.8126 49.7428 35.5565 52.9348 37.9472C53.151 38.1073 53.3632 38.2837 53.5675 38.4718C53.6514 38.5517 53.7357 38.628 53.8199 38.7122C56.9997 41.892 56.9997 47.0424 53.8199 50.2262C53.6597 50.3824 53.4992 50.5346 53.3314 50.6749C53.2594 50.7389 53.1831 50.8032 53.1072 50.8592C52.8628 51.0515 52.6067 51.2316 52.3462 51.3918C52.2582 51.4478 52.1698 51.5002 52.0819 51.548C51.9939 51.604 51.9015 51.6521 51.8136 51.6962C48.7456 53.2899 44.881 52.8014 42.3058 50.2262Z" fill="#00746A"/>
<path d="M85.9472 121.354C85.9472 121.354 85.9472 121.017 85.9472 120.394L38.8997 73.3579C37.0744 71.8983 34.6577 71.1673 31.6487 71.1673C25.0392 71.1673 21.7343 74.2121 21.7343 80.3018V91.2929C21.7343 94.5895 22.7115 96.986 24.6487 98.498L61.5305 135.38H71.9222C79.6676 135.379 85.9472 129.1 85.9472 121.354Z" fill="url(#paint1_linear_307_19452)"/>
<path d="M63.6494 69.0877C63.0004 68.5435 62.2779 68.2707 61.4795 68.2707C60.3933 68.2707 59.653 68.7164 59.2583 69.6075L32.0942 124.174C31.8971 124.521 31.7985 124.892 31.7985 125.288C31.7985 125.981 32.0724 126.612 32.6209 127.182L40.8186 135.379H71.922C79.6676 135.379 85.947 129.1 85.947 121.354C85.947 121.354 85.947 111.394 85.947 98.9873V91.495L63.6494 69.0877Z" fill="url(#paint2_linear_307_19452)"/>
<path d="M71.6502 98.3848C69.8248 96.9252 67.4079 96.1942 64.3992 96.1942C57.7896 96.1942 54.4847 99.2391 54.4847 105.329V116.32C54.4847 119.616 55.462 122.013 57.3992 123.525L69.2538 135.379H71.9217C79.6673 135.379 85.9467 129.1 85.9467 121.354C85.9467 121.354 85.9467 117.963 85.9467 112.678L71.6502 98.3848Z" fill="url(#paint3_linear_307_19452)"/>
<g filter="url(#filter0_d_307_19452)">
<path d="M21.7343 91.2926V80.3016C21.7343 74.2119 25.0392 71.167 31.6487 71.167C34.6574 71.167 37.0746 71.898 38.8997 73.3576C40.7238 74.8186 41.637 77.1338 41.637 80.3013V91.2924C41.637 94.4613 40.7241 96.7762 38.8997 98.2361C37.0744 99.697 34.6574 100.427 31.6487 100.427C25.0392 100.427 21.7343 97.3821 21.7343 91.2926ZM27.0069 91.1686C27.0069 94.0243 28.5539 95.4515 31.6484 95.4515C34.7916 95.4515 36.3638 94.0243 36.3638 91.1686V80.4257C36.3638 77.5712 34.7916 76.143 31.6484 76.143C28.5536 76.143 27.0069 77.5712 27.0069 80.4257C27.0072 80.4257 27.0072 91.1686 27.0069 91.1686ZM31.7985 125.288C31.7985 124.892 31.8971 124.521 32.0942 124.174L59.2586 69.6075C59.6533 68.7164 60.3936 68.2707 61.4797 68.2707C62.2779 68.2707 63.0007 68.5435 63.6496 69.0877C64.2983 69.633 64.6231 70.3014 64.6231 71.0927C64.6231 71.4898 64.5488 71.8853 64.4013 72.2808L37.2348 126.625C36.7899 127.565 35.9513 128.036 34.7177 128.036C33.8688 128.036 33.1702 127.75 32.6209 127.182C32.0724 126.612 31.7985 125.981 31.7985 125.288ZM54.485 116.473V105.398C54.485 99.2622 57.7899 96.1942 64.3995 96.1942C67.4082 96.1942 69.8254 96.9311 71.6505 98.4024C73.4746 99.8737 74.3878 102.206 74.3878 105.398V116.473C74.3878 119.666 73.4746 121.998 71.6505 123.47C69.8251 124.941 67.4082 125.677 64.3995 125.677C57.7897 125.677 54.485 122.609 54.485 116.473ZM59.7577 116.37C59.7577 119.257 61.3047 120.701 64.3992 120.701C67.5423 120.701 69.1146 119.258 69.1146 116.37V105.501C69.1146 102.614 67.5423 101.169 64.3992 101.169C61.3044 101.169 59.7577 102.614 59.7577 105.501V116.37Z" fill="url(#paint4_linear_307_19452)"/>
</g>
<path d="M85.947 44.9748V70.9376L54.4832 39.4738C54.2805 39.2105 54.06 38.9545 53.8218 38.7127C53.7365 38.6275 53.651 38.5528 53.5691 38.4708C53.5123 38.4174 53.4552 38.3674 53.3949 38.3215C53.2456 38.1863 53.0889 38.062 52.9362 37.9483C49.8921 35.6687 45.6286 35.7933 42.7269 38.3255V18.6033C46.0801 16.9318 50.0167 16.893 53.3952 18.4894C53.7684 18.6636 54.1384 18.8626 54.4975 19.0799L74.6746 31.2699L80.0477 34.5201C83.7067 36.732 85.947 40.6932 85.947 44.9748Z" fill="url(#paint5_linear_307_19452)"/>
<path d="M48.0609 48.0189C45.1151 48.0189 42.7269 45.6307 42.7269 42.6849V5.33402C42.7269 2.38823 45.1151 0 48.0609 0C51.0067 0 53.3949 2.38823 53.3949 5.33402V42.6846C53.3952 45.6307 51.0067 48.0189 48.0609 48.0189Z" fill="url(#paint6_linear_307_19452)"/>
</g>
<defs>
<filter id="filter0_d_307_19452" x="17.7343" y="68.2707" width="60.6535" height="67.7654" filterUnits="userSpaceOnUse" color-interpolation-filters="sRGB">
<feFlood flood-opacity="0" result="BackgroundImageFix"/>
<feColorMatrix in="SourceAlpha" type="matrix" values="0 0 0 0 0 0 0 0 0 0 0 0 0 0 0 0 0 0 127 0" result="hardAlpha"/>
<feOffset dy="4"/>
<feGaussianBlur stdDeviation="2"/>
<feComposite in2="hardAlpha" operator="out"/>
<feColorMatrix type="matrix" values="0 0 0 0 0 0 0 0 0 0 0 0 0 0 0 0 0 0 0.25 0"/>
<feBlend mode="normal" in2="BackgroundImageFix" result="effect1_dropShadow_307_19452"/>
<feBlend mode="normal" in="SourceGraphic" in2="effect1_dropShadow_307_19452" result="shape"/>
</filter>
<linearGradient id="paint0_linear_307_19452" x1="62.5023" y1="14.1675" x2="122.935" y2="103.535" gradientUnits="userSpaceOnUse">
<stop stop-color="white"/>
<stop offset="1" stop-color="white" stop-opacity="0"/>
</linearGradient>
<linearGradient id="paint1_linear_307_19452" x1="-6.47229" y1="-8.5633" x2="117.602" y2="-2.40257" gradientUnits="userSpaceOnUse">
<stop stop-color="#00746A"/>
<stop offset="1" stop-color="#4B9960"/>
</linearGradient>
<linearGradient id="paint2_linear_307_19452" x1="8.01298" y1="-15.0563" x2="112.73" y2="-10.8609" gradientUnits="userSpaceOnUse">
<stop stop-color="#00746A"/>
<stop offset="1" stop-color="#4B9960"/>
</linearGradient>
<linearGradient id="paint3_linear_307_19452" x1="40.6646" y1="47.5391" x2="101.51" y2="49.9648" gradientUnits="userSpaceOnUse">
<stop stop-color="#00746A"/>
<stop offset="1" stop-color="#4B9960"/>
</linearGradient>
<linearGradient id="paint4_linear_307_19452" x1="48.0599" y1="82.2145" x2="48.0599" y2="148.936" gradientUnits="userSpaceOnUse">
<stop stop-color="white"/>
<stop offset="1" stop-color="#E2EDF2"/>
</linearGradient>
<linearGradient id="paint5_linear_307_19452" x1="23.7418" y1="-49.2548" x2="107.325" y2="-45.9094" gradientUnits="userSpaceOnUse">
<stop stop-color="#00746A"/>
<stop offset="1" stop-color="#4B9960"/>
</linearGradient>
<linearGradient id="paint6_linear_307_19452" x1="38.0408" y1="-59.6235" x2="58.7022" y2="-59.3956" gradientUnits="userSpaceOnUse">
<stop stop-color="#00746A"/>
<stop offset="1" stop-color="#4B9960"/>
</linearGradient>
<clipPath id="clip0_307_19452">
<rect width="136" height="136" fill="white"/>
</clipPath>
</defs>
</svg>
