<svg width="193" height="193" viewBox="0 0 193 193" fill="none" xmlns="http://www.w3.org/2000/svg">
<g filter="url(#filter0_dd_460_225)">
<path d="M41.5 76.5C41.5 46.2742 66.2742 21.5 96.5 21.5C126.725 21.5 151.5 46.2742 151.5 76.5C151.5 91.4858 145.238 105.082 135.462 115.003L96.5 128.163L57.5378 115.003C47.762 105.082 41.5 91.4857 41.5 76.5ZM72.5312 76.5C72.5312 89.7179 83.2821 100.469 96.5 100.469C109.718 100.469 120.469 89.7179 120.469 76.5C120.469 63.2821 109.718 52.5312 96.5 52.5312C83.2821 52.5312 72.5312 63.2821 72.5312 76.5Z" fill="url(#paint0_linear_460_225)" stroke="url(#paint1_linear_460_225)" stroke-width="2"/>
<path d="M41.5 76.5C41.5 46.2742 66.2742 21.5 96.5 21.5C126.725 21.5 151.5 46.2742 151.5 76.5C151.5 91.4858 145.238 105.082 135.462 115.003L96.5 128.163L57.5378 115.003C47.762 105.082 41.5 91.4857 41.5 76.5ZM72.5312 76.5C72.5312 89.7179 83.2821 100.469 96.5 100.469C109.718 100.469 120.469 89.7179 120.469 76.5C120.469 63.2821 109.718 52.5312 96.5 52.5312C83.2821 52.5312 72.5312 63.2821 72.5312 76.5Z" fill="url(#paint2_linear_460_225)" stroke="url(#paint3_linear_460_225)" stroke-width="2"/>
<path d="M96.5 115.875C86.6562 115.875 86.6562 109.312 76.8125 109.312C66.9687 109.312 66.9687 115.941 56.9935 115.875C67.1 125.981 81.0781 132.5 96.5 132.5C111.922 132.5 125.9 125.981 136.006 115.875C126.031 115.941 126.097 109.312 116.187 109.312C106.344 109.312 106.344 115.875 96.5 115.875ZM66.0073 87.3051C64.7257 86.0234 62.6491 86.0234 61.3674 87.3051C60.0858 88.5867 60.0858 90.6633 61.3674 91.945L67.9299 98.5075C69.2118 99.7891 71.2882 99.7891 72.5698 98.5075C73.8515 97.2258 73.8515 95.1492 72.5698 93.8676L66.0073 87.3051ZM96.5 46.9687H109.625C111.439 46.9687 112.906 45.5011 112.906 43.6874C112.906 41.8738 111.439 40.4062 109.625 40.4062H96.5C94.6863 40.4062 93.2187 41.8738 93.2187 43.6874C93.2187 45.5011 94.6863 46.9687 96.5 46.9687ZM125.07 98.5073L131.632 91.9448C132.914 90.6631 132.914 88.5865 131.632 87.3049C130.351 86.0232 128.274 86.0232 126.992 87.3049L120.43 93.8674C119.148 95.149 119.148 97.2256 120.43 98.5073C121.712 99.7891 123.788 99.7891 125.07 98.5073ZM126.993 65.6948C128.275 66.9764 130.351 66.9764 131.633 65.6948C132.914 64.4131 132.914 62.3365 131.633 61.0549L125.07 54.4924C123.788 53.2107 121.712 53.2107 120.43 54.4924C119.148 55.774 119.148 57.8506 120.43 59.1323L126.993 65.6948ZM66.0073 65.6948L72.5698 59.1323C73.8515 57.8506 73.8515 55.774 72.5698 54.4924C71.2882 53.2107 69.2116 53.2107 67.9299 54.4924L61.3674 61.0549C60.0858 62.3365 60.0858 64.4131 61.3674 65.6948C62.6493 66.9767 64.7257 66.9767 66.0073 65.6948ZM83.3752 46.8125C85.1873 46.8125 86.6565 45.3434 86.6565 43.5312C86.6565 41.7191 85.1873 40.25 83.3752 40.25C81.5631 40.25 80.094 41.7191 80.094 43.5312C80.094 45.3434 81.5629 46.8125 83.3752 46.8125ZM60.4065 76.3437C60.4065 74.5316 58.9373 73.0625 57.1252 73.0625C55.3131 73.0625 53.844 74.5316 53.844 76.3437C53.844 78.1559 55.3131 79.625 57.1252 79.625C58.9373 79.625 60.4065 78.1559 60.4065 76.3437ZM135.875 73.0625C134.063 73.0625 132.594 74.5316 132.594 76.3437C132.594 78.1559 134.063 79.625 135.875 79.625C137.687 79.625 139.156 78.1559 139.156 76.3437C139.156 74.5316 137.687 73.0625 135.875 73.0625Z" fill="white"/>
</g>
<defs>
<filter id="filter0_dd_460_225" x="0.5" y="0.5" width="192" height="192" filterUnits="userSpaceOnUse" color-interpolation-filters="sRGB">
<feFlood flood-opacity="0" result="BackgroundImageFix"/>
<feColorMatrix in="SourceAlpha" type="matrix" values="0 0 0 0 0 0 0 0 0 0 0 0 0 0 0 0 0 0 127 0" result="hardAlpha"/>
<feOffset dy="20"/>
<feGaussianBlur stdDeviation="20"/>
<feColorMatrix type="matrix" values="0 0 0 0 0.294118 0 0 0 0 0.6 0 0 0 0 0.376471 0 0 0 1 0"/>
<feBlend mode="normal" in2="BackgroundImageFix" result="effect1_dropShadow_460_225"/>
<feColorMatrix in="SourceAlpha" type="matrix" values="0 0 0 0 0 0 0 0 0 0 0 0 0 0 0 0 0 0 127 0" result="hardAlpha"/>
<feOffset dy="5"/>
<feGaussianBlur stdDeviation="5"/>
<feColorMatrix type="matrix" values="0 0 0 0 0 0 0 0 0 0.454902 0 0 0 0 0.415686 0 0 0 1 0"/>
<feBlend mode="normal" in2="effect1_dropShadow_460_225" result="effect2_dropShadow_460_225"/>
<feBlend mode="normal" in="SourceGraphic" in2="effect2_dropShadow_460_225" result="shape"/>
</filter>
<linearGradient id="paint0_linear_460_225" x1="-8.69773" y1="-114.493" x2="207.68" y2="-103.425" gradientUnits="userSpaceOnUse">
<stop stop-color="#00746A"/>
<stop offset="1" stop-color="#4B9960"/>
</linearGradient>
<linearGradient id="paint1_linear_460_225" x1="-8.69773" y1="-114.493" x2="207.68" y2="-103.425" gradientUnits="userSpaceOnUse">
<stop stop-color="#00746A"/>
<stop offset="1" stop-color="#4B9960"/>
</linearGradient>
<linearGradient id="paint2_linear_460_225" x1="-8.69773" y1="-114.493" x2="207.68" y2="-103.425" gradientUnits="userSpaceOnUse">
<stop stop-color="#00746A"/>
<stop offset="1" stop-color="#4B9960"/>
</linearGradient>
<linearGradient id="paint3_linear_460_225" x1="-8.69773" y1="-114.493" x2="207.68" y2="-103.425" gradientUnits="userSpaceOnUse">
<stop stop-color="#00746A"/>
<stop offset="1" stop-color="#4B9960"/>
</linearGradient>
</defs>
</svg>
